<mxfile host="65bd71144e">
    <diagram id="97Y9pvVlC7XPr3LZC0Za" name="Page-1">
        <mxGraphModel dx="1145" dy="667" grid="1" gridSize="10" guides="1" tooltips="1" connect="1" arrows="1" fold="1" page="1" pageScale="1" pageWidth="827" pageHeight="1169" math="0" shadow="0">
            <root>
                <mxCell id="0"/>
                <mxCell id="1" parent="0"/>
                <mxCell id="2" value="Personen" style="swimlane;fontStyle=0;childLayout=stackLayout;horizontal=1;startSize=30;horizontalStack=0;resizeParent=1;resizeParentMax=0;resizeLast=0;collapsible=1;marginBottom=0;" parent="1" vertex="1">
                    <mxGeometry x="370" y="20" width="140" height="90" as="geometry"/>
                </mxCell>
                <mxCell id="3" value="-Name" style="text;strokeColor=none;fillColor=none;align=left;verticalAlign=middle;spacingLeft=4;spacingRight=4;overflow=hidden;points=[[0,0.5],[1,0.5]];portConstraint=eastwest;rotatable=0;" parent="2" vertex="1">
                    <mxGeometry y="30" width="140" height="30" as="geometry"/>
                </mxCell>
                <mxCell id="5" value="-Alter" style="text;strokeColor=none;fillColor=none;align=left;verticalAlign=middle;spacingLeft=4;spacingRight=4;overflow=hidden;points=[[0,0.5],[1,0.5]];portConstraint=eastwest;rotatable=0;" parent="2" vertex="1">
                    <mxGeometry y="60" width="140" height="30" as="geometry"/>
                </mxCell>
                <mxCell id="6" value="Propant" style="swimlane;fontStyle=0;childLayout=stackLayout;horizontal=1;startSize=40;horizontalStack=0;resizeParent=1;resizeParentMax=0;resizeLast=0;collapsible=1;marginBottom=0;align=left;" parent="1" vertex="1">
                    <mxGeometry x="230" y="180" width="140" height="150" as="geometry"/>
                </mxCell>
                <mxCell id="9" value="- Puls&#10;- SV.Nr&#10;- Geschwindigkeit" style="text;strokeColor=none;fillColor=none;align=left;verticalAlign=middle;spacingLeft=4;spacingRight=4;overflow=hidden;points=[[0,0.5],[1,0.5]];portConstraint=eastwest;rotatable=0;" parent="6" vertex="1">
                    <mxGeometry y="40" width="140" height="50" as="geometry"/>
                </mxCell>
                <mxCell id="32" value="" style="shape=crossbar;whiteSpace=wrap;html=1;rounded=1;" parent="6" vertex="1">
                    <mxGeometry y="90" width="140" height="40" as="geometry"/>
                </mxCell>
                <mxCell id="33" value="treten()" style="text;html=1;align=center;verticalAlign=middle;resizable=0;points=[];autosize=1;strokeColor=none;fillColor=none;" parent="6" vertex="1">
                    <mxGeometry y="130" width="140" height="20" as="geometry"/>
                </mxCell>
                <mxCell id="10" value="Diagnostiker:in" style="swimlane;fontStyle=0;childLayout=stackLayout;horizontal=1;startSize=30;horizontalStack=0;resizeParent=1;resizeParentMax=0;resizeLast=0;collapsible=1;marginBottom=0;" parent="1" vertex="1">
                    <mxGeometry x="520" y="180" width="140" height="150" as="geometry"/>
                </mxCell>
                <mxCell id="13" value="-Personalnummer" style="text;strokeColor=none;fillColor=none;align=left;verticalAlign=middle;spacingLeft=4;spacingRight=4;overflow=hidden;points=[[0,0.5],[1,0.5]];portConstraint=eastwest;rotatable=0;" parent="10" vertex="1">
                    <mxGeometry y="30" width="140" height="30" as="geometry"/>
                </mxCell>
                <mxCell id="34" value="" style="shape=crossbar;whiteSpace=wrap;html=1;rounded=1;" parent="10" vertex="1">
                    <mxGeometry y="60" width="140" height="60" as="geometry"/>
                </mxCell>
                <mxCell id="35" value="-Start des Tests()&lt;br&gt;-Ende des Tests()" style="text;html=1;align=center;verticalAlign=middle;resizable=0;points=[];autosize=1;strokeColor=none;fillColor=none;" parent="10" vertex="1">
                    <mxGeometry y="120" width="140" height="30" as="geometry"/>
                </mxCell>
                <mxCell id="18" value="" style="edgeStyle=elbowEdgeStyle;elbow=vertical;endArrow=classic;html=1;exitX=0.5;exitY=0;exitDx=0;exitDy=0;" parent="1" source="6" target="5" edge="1">
                    <mxGeometry width="50" height="50" relative="1" as="geometry">
                        <mxPoint x="420" y="300" as="sourcePoint"/>
                        <mxPoint x="470" y="250" as="targetPoint"/>
                        <Array as="points">
                            <mxPoint x="440" y="150"/>
                        </Array>
                    </mxGeometry>
                </mxCell>
                <mxCell id="19" value="" style="edgeStyle=elbowEdgeStyle;elbow=vertical;endArrow=classic;html=1;exitX=0.5;exitY=0;exitDx=0;exitDy=0;entryX=0.503;entryY=0.967;entryDx=0;entryDy=0;entryPerimeter=0;" parent="1" source="10" target="5" edge="1">
                    <mxGeometry width="50" height="50" relative="1" as="geometry">
                        <mxPoint x="420" y="300" as="sourcePoint"/>
                        <mxPoint x="440" y="200" as="targetPoint"/>
                        <Array as="points">
                            <mxPoint x="520" y="150"/>
                            <mxPoint x="510" y="230"/>
                            <mxPoint x="440" y="190"/>
                        </Array>
                    </mxGeometry>
                </mxCell>
                <mxCell id="40" value="" style="endArrow=none;dashed=1;html=1;entryX=0.514;entryY=1.03;entryDx=0;entryDy=0;entryPerimeter=0;exitX=0.5;exitY=0;exitDx=0;exitDy=0;startArrow=none;" parent="1" source="44" target="35" edge="1">
                    <mxGeometry width="50" height="50" relative="1" as="geometry">
                        <mxPoint x="370" y="610" as="sourcePoint"/>
                        <mxPoint x="420" y="560" as="targetPoint"/>
                    </mxGeometry>
                </mxCell>
                <mxCell id="44" value="bedienen" style="text;html=1;align=center;verticalAlign=middle;resizable=0;points=[];autosize=1;strokeColor=none;fillColor=none;" parent="1" vertex="1">
                    <mxGeometry x="530" y="360" width="70" height="20" as="geometry"/>
                </mxCell>
                <mxCell id="46" value="treten" style="text;html=1;align=center;verticalAlign=middle;resizable=0;points=[];autosize=1;strokeColor=none;fillColor=none;" parent="1" vertex="1">
                    <mxGeometry x="320" y="370" width="50" height="20" as="geometry"/>
                </mxCell>
                <mxCell id="47" value="" style="endArrow=none;dashed=1;html=1;entryX=0.5;entryY=0;entryDx=0;entryDy=0;exitX=0.606;exitY=1.13;exitDx=0;exitDy=0;exitPerimeter=0;" parent="1" source="33" target="46" edge="1">
                    <mxGeometry width="50" height="50" relative="1" as="geometry">
                        <mxPoint x="314.8399999999999" y="422.6" as="sourcePoint"/>
                        <mxPoint x="440" y="520" as="targetPoint"/>
                    </mxGeometry>
                </mxCell>
                <mxCell id="48" value="Test" style="swimlane;fontStyle=0;childLayout=stackLayout;horizontal=1;startSize=40;horizontalStack=0;resizeParent=1;resizeParentMax=0;resizeLast=0;collapsible=1;marginBottom=0;align=left;" parent="1" vertex="1">
                    <mxGeometry x="50" y="405" width="140" height="180" as="geometry"/>
                </mxCell>
                <mxCell id="49" value="&#10;-Puls&#10;-Geschwindigkeit" style="text;strokeColor=none;fillColor=none;align=left;verticalAlign=middle;spacingLeft=4;spacingRight=4;overflow=hidden;points=[[0,0.5],[1,0.5]];portConstraint=eastwest;rotatable=0;" parent="48" vertex="1">
                    <mxGeometry y="40" width="140" height="80" as="geometry"/>
                </mxCell>
                <mxCell id="50" value="" style="shape=crossbar;whiteSpace=wrap;html=1;rounded=1;" parent="48" vertex="1">
                    <mxGeometry y="120" width="140" height="40" as="geometry"/>
                </mxCell>
                <mxCell id="51" value="Ergebnis()" style="text;html=1;align=center;verticalAlign=middle;resizable=0;points=[];autosize=1;strokeColor=none;fillColor=none;" parent="48" vertex="1">
                    <mxGeometry y="160" width="140" height="20" as="geometry"/>
                </mxCell>
                <mxCell id="53" value="" style="endArrow=classic;html=1;entryX=0.5;entryY=0;entryDx=0;entryDy=0;exitX=0.514;exitY=0.97;exitDx=0;exitDy=0;exitPerimeter=0;" parent="1" source="33" target="48" edge="1">
                    <mxGeometry width="50" height="50" relative="1" as="geometry">
                        <mxPoint x="370" y="630" as="sourcePoint"/>
                        <mxPoint x="310" y="520" as="targetPoint"/>
                    </mxGeometry>
                </mxCell>
                <mxCell id="54" value="Ergometer" style="swimlane;fontStyle=0;childLayout=stackLayout;horizontal=1;startSize=40;horizontalStack=0;resizeParent=1;resizeParentMax=0;resizeLast=0;collapsible=1;marginBottom=0;align=left;" parent="1" vertex="1">
                    <mxGeometry x="360" y="430" width="140" height="130" as="geometry"/>
                </mxCell>
                <mxCell id="55" value="-Type&#10;" style="text;strokeColor=none;fillColor=none;align=left;verticalAlign=middle;spacingLeft=4;spacingRight=4;overflow=hidden;points=[[0,0.5],[1,0.5]];portConstraint=eastwest;rotatable=0;" parent="54" vertex="1">
                    <mxGeometry y="40" width="140" height="50" as="geometry"/>
                </mxCell>
                <mxCell id="56" value="" style="shape=crossbar;whiteSpace=wrap;html=1;rounded=1;" parent="54" vertex="1">
                    <mxGeometry y="90" width="140" height="40" as="geometry"/>
                </mxCell>
                <mxCell id="62" value="" style="endArrow=none;dashed=1;html=1;entryX=0.36;entryY=0.95;entryDx=0;entryDy=0;entryPerimeter=0;exitX=0.64;exitY=0.006;exitDx=0;exitDy=0;exitPerimeter=0;" parent="1" source="54" target="44" edge="1">
                    <mxGeometry width="50" height="50" relative="1" as="geometry">
                        <mxPoint x="370" y="720" as="sourcePoint"/>
                        <mxPoint x="420" y="670" as="targetPoint"/>
                    </mxGeometry>
                </mxCell>
                <mxCell id="63" value="" style="endArrow=none;dashed=1;html=1;entryX=0.5;entryY=0;entryDx=0;entryDy=0;" parent="1" source="46" target="54" edge="1">
                    <mxGeometry width="50" height="50" relative="1" as="geometry">
                        <mxPoint x="370" y="720" as="sourcePoint"/>
                        <mxPoint x="420" y="670" as="targetPoint"/>
                    </mxGeometry>
                </mxCell>
                <mxCell id="65" value="" style="edgeStyle=elbowEdgeStyle;elbow=horizontal;endArrow=classic;html=1;exitX=0.523;exitY=1.09;exitDx=0;exitDy=0;exitPerimeter=0;entryX=0;entryY=0;entryDx=0;entryDy=0;" parent="1" source="51" target="54" edge="1">
                    <mxGeometry width="50" height="50" relative="1" as="geometry">
                        <mxPoint x="370" y="780" as="sourcePoint"/>
                        <mxPoint x="360" y="540" as="targetPoint"/>
                        <Array as="points">
                            <mxPoint x="250" y="550"/>
                            <mxPoint x="360" y="530"/>
                            <mxPoint x="297" y="750"/>
                        </Array>
                    </mxGeometry>
                </mxCell>
                <mxCell id="105" value="UC 2.7" style="swimlane;fontStyle=1;align=center;verticalAlign=top;childLayout=stackLayout;horizontal=1;startSize=26;horizontalStack=0;resizeParent=1;resizeParentMax=0;resizeLast=0;collapsible=1;marginBottom=0;" parent="1" vertex="1">
                    <mxGeometry x="100" y="850" width="110" height="68" as="geometry"/>
                </mxCell>
                <mxCell id="106" value="Speichern der&#10;Daten" style="text;strokeColor=none;fillColor=none;align=left;verticalAlign=top;spacingLeft=4;spacingRight=4;overflow=hidden;rotatable=0;points=[[0,0.5],[1,0.5]];portConstraint=eastwest;" parent="105" vertex="1">
                    <mxGeometry y="26" width="110" height="34" as="geometry"/>
                </mxCell>
                <mxCell id="107" value="" style="line;strokeWidth=1;fillColor=none;align=left;verticalAlign=middle;spacingTop=-1;spacingLeft=3;spacingRight=3;rotatable=0;labelPosition=right;points=[];portConstraint=eastwest;" parent="105" vertex="1">
                    <mxGeometry y="60" width="110" height="8" as="geometry"/>
                </mxCell>
                <mxCell id="110" value="UC 2.0" style="swimlane;fontStyle=1;align=center;verticalAlign=top;childLayout=stackLayout;horizontal=1;startSize=26;horizontalStack=0;resizeParent=1;resizeParentMax=0;resizeLast=0;collapsible=1;marginBottom=0;" parent="1" vertex="1">
                    <mxGeometry x="600" y="600" width="110" height="78" as="geometry"/>
                </mxCell>
                <mxCell id="111" value="Auswertung der &#10;Leistungsdaten" style="text;strokeColor=none;fillColor=none;align=left;verticalAlign=top;spacingLeft=4;spacingRight=4;overflow=hidden;rotatable=0;points=[[0,0.5],[1,0.5]];portConstraint=eastwest;" parent="110" vertex="1">
                    <mxGeometry y="26" width="110" height="44" as="geometry"/>
                </mxCell>
                <mxCell id="112" value="" style="line;strokeWidth=1;fillColor=none;align=left;verticalAlign=middle;spacingTop=-1;spacingLeft=3;spacingRight=3;rotatable=0;labelPosition=right;points=[];portConstraint=eastwest;" parent="110" vertex="1">
                    <mxGeometry y="70" width="110" height="8" as="geometry"/>
                </mxCell>
                <mxCell id="114" value="UC 2.6" style="swimlane;fontStyle=1;align=center;verticalAlign=top;childLayout=stackLayout;horizontal=1;startSize=26;horizontalStack=0;resizeParent=1;resizeParentMax=0;resizeLast=0;collapsible=1;marginBottom=0;" parent="1" vertex="1">
                    <mxGeometry x="100" y="987" width="110" height="88" as="geometry"/>
                </mxCell>
                <mxCell id="115" value="Manuelle Eingabe &#10;der &#10;Abbruchkriterien" style="text;strokeColor=none;fillColor=none;align=left;verticalAlign=top;spacingLeft=4;spacingRight=4;overflow=hidden;rotatable=0;points=[[0,0.5],[1,0.5]];portConstraint=eastwest;" parent="114" vertex="1">
                    <mxGeometry y="26" width="110" height="54" as="geometry"/>
                </mxCell>
                <mxCell id="116" value="" style="line;strokeWidth=1;fillColor=none;align=left;verticalAlign=middle;spacingTop=-1;spacingLeft=3;spacingRight=3;rotatable=0;labelPosition=right;points=[];portConstraint=eastwest;" parent="114" vertex="1">
                    <mxGeometry y="80" width="110" height="8" as="geometry"/>
                </mxCell>
                <mxCell id="118" value="UC 2.5" style="swimlane;fontStyle=1;align=center;verticalAlign=top;childLayout=stackLayout;horizontal=1;startSize=26;horizontalStack=0;resizeParent=1;resizeParentMax=0;resizeLast=0;collapsible=1;marginBottom=0;" parent="1" vertex="1">
                    <mxGeometry x="280" y="992" width="110" height="68" as="geometry"/>
                </mxCell>
                <mxCell id="119" value="Visualisierung der &#10;Daten" style="text;strokeColor=none;fillColor=none;align=left;verticalAlign=top;spacingLeft=4;spacingRight=4;overflow=hidden;rotatable=0;points=[[0,0.5],[1,0.5]];portConstraint=eastwest;" parent="118" vertex="1">
                    <mxGeometry y="26" width="110" height="34" as="geometry"/>
                </mxCell>
                <mxCell id="120" value="" style="line;strokeWidth=1;fillColor=none;align=left;verticalAlign=middle;spacingTop=-1;spacingLeft=3;spacingRight=3;rotatable=0;labelPosition=right;points=[];portConstraint=eastwest;" parent="118" vertex="1">
                    <mxGeometry y="60" width="110" height="8" as="geometry"/>
                </mxCell>
                <mxCell id="122" value="UC 2.4" style="swimlane;fontStyle=1;align=center;verticalAlign=top;childLayout=stackLayout;horizontal=1;startSize=26;horizontalStack=0;resizeParent=1;resizeParentMax=0;resizeLast=0;collapsible=1;marginBottom=0;" parent="1" vertex="1">
                    <mxGeometry x="460" y="987" width="110" height="78" as="geometry"/>
                </mxCell>
                <mxCell id="123" value="Erstellen einer&#10;Zusammenfassung" style="text;strokeColor=none;fillColor=none;align=left;verticalAlign=top;spacingLeft=4;spacingRight=4;overflow=hidden;rotatable=0;points=[[0,0.5],[1,0.5]];portConstraint=eastwest;" parent="122" vertex="1">
                    <mxGeometry y="26" width="110" height="44" as="geometry"/>
                </mxCell>
                <mxCell id="124" value="" style="line;strokeWidth=1;fillColor=none;align=left;verticalAlign=middle;spacingTop=-1;spacingLeft=3;spacingRight=3;rotatable=0;labelPosition=right;points=[];portConstraint=eastwest;" parent="122" vertex="1">
                    <mxGeometry y="70" width="110" height="8" as="geometry"/>
                </mxCell>
                <mxCell id="126" value="UC 2.3" style="swimlane;fontStyle=1;align=center;verticalAlign=top;childLayout=stackLayout;horizontal=1;startSize=26;horizontalStack=0;resizeParent=1;resizeParentMax=0;resizeLast=0;collapsible=1;marginBottom=0;" parent="1" vertex="1">
                    <mxGeometry x="650" y="982" width="110" height="88" as="geometry"/>
                </mxCell>
                <mxCell id="127" value="Analysieren der&#10;Daten auf&#10;Abbruchkriterien" style="text;strokeColor=none;fillColor=none;align=left;verticalAlign=top;spacingLeft=4;spacingRight=4;overflow=hidden;rotatable=0;points=[[0,0.5],[1,0.5]];portConstraint=eastwest;" parent="126" vertex="1">
                    <mxGeometry y="26" width="110" height="54" as="geometry"/>
                </mxCell>
                <mxCell id="128" value="" style="line;strokeWidth=1;fillColor=none;align=left;verticalAlign=middle;spacingTop=-1;spacingLeft=3;spacingRight=3;rotatable=0;labelPosition=right;points=[];portConstraint=eastwest;" parent="126" vertex="1">
                    <mxGeometry y="80" width="110" height="8" as="geometry"/>
                </mxCell>
                <mxCell id="130" value="UC 2.2" style="swimlane;fontStyle=1;align=center;verticalAlign=top;childLayout=stackLayout;horizontal=1;startSize=26;horizontalStack=0;resizeParent=1;resizeParentMax=0;resizeLast=0;collapsible=1;marginBottom=0;" parent="1" vertex="1">
                    <mxGeometry x="600" y="850" width="110" height="78" as="geometry"/>
                </mxCell>
                <mxCell id="131" value="Vorverarbeiten der&#10;Daten&#10;" style="text;strokeColor=none;fillColor=none;align=left;verticalAlign=top;spacingLeft=4;spacingRight=4;overflow=hidden;rotatable=0;points=[[0,0.5],[1,0.5]];portConstraint=eastwest;" parent="130" vertex="1">
                    <mxGeometry y="26" width="110" height="44" as="geometry"/>
                </mxCell>
                <mxCell id="132" value="" style="line;strokeWidth=1;fillColor=none;align=left;verticalAlign=middle;spacingTop=-1;spacingLeft=3;spacingRight=3;rotatable=0;labelPosition=right;points=[];portConstraint=eastwest;" parent="130" vertex="1">
                    <mxGeometry y="70" width="110" height="8" as="geometry"/>
                </mxCell>
                <mxCell id="134" value="UC 2.1" style="swimlane;fontStyle=1;align=center;verticalAlign=top;childLayout=stackLayout;horizontal=1;startSize=26;horizontalStack=0;resizeParent=1;resizeParentMax=0;resizeLast=0;collapsible=1;marginBottom=0;" parent="1" vertex="1">
                    <mxGeometry x="600" y="730" width="110" height="68" as="geometry"/>
                </mxCell>
                <mxCell id="135" value="Einlesen der &#10;Daten" style="text;strokeColor=none;fillColor=none;align=left;verticalAlign=top;spacingLeft=4;spacingRight=4;overflow=hidden;rotatable=0;points=[[0,0.5],[1,0.5]];portConstraint=eastwest;" parent="134" vertex="1">
                    <mxGeometry y="26" width="110" height="34" as="geometry"/>
                </mxCell>
                <mxCell id="136" value="" style="line;strokeWidth=1;fillColor=none;align=left;verticalAlign=middle;spacingTop=-1;spacingLeft=3;spacingRight=3;rotatable=0;labelPosition=right;points=[];portConstraint=eastwest;" parent="134" vertex="1">
                    <mxGeometry y="60" width="110" height="8" as="geometry"/>
                </mxCell>
                <mxCell id="141" value="" style="endArrow=diamondThin;endFill=1;endSize=24;html=1;entryX=1;entryY=0.5;entryDx=0;entryDy=0;exitX=0;exitY=0.5;exitDx=0;exitDy=0;" parent="1" source="111" target="155" edge="1">
                    <mxGeometry width="160" relative="1" as="geometry">
                        <mxPoint x="100" y="850" as="sourcePoint"/>
                        <mxPoint x="438.82000000000016" y="589.7900000000002" as="targetPoint"/>
                    </mxGeometry>
                </mxCell>
                <mxCell id="142" value="" style="endArrow=diamondThin;endFill=1;endSize=24;html=1;exitX=0.442;exitY=-0.018;exitDx=0;exitDy=0;exitPerimeter=0;entryX=0.428;entryY=0.625;entryDx=0;entryDy=0;entryPerimeter=0;" parent="1" source="134" edge="1" target="112">
                    <mxGeometry width="160" relative="1" as="geometry">
                        <mxPoint x="120" y="900" as="sourcePoint"/>
                        <mxPoint x="89" y="730" as="targetPoint"/>
                    </mxGeometry>
                </mxCell>
                <mxCell id="143" value="" style="endArrow=diamondThin;endFill=1;endSize=24;html=1;exitX=0.5;exitY=0;exitDx=0;exitDy=0;entryX=0.545;entryY=1.25;entryDx=0;entryDy=0;entryPerimeter=0;" parent="1" source="130" target="136" edge="1">
                    <mxGeometry width="160" relative="1" as="geometry">
                        <mxPoint x="120" y="1000" as="sourcePoint"/>
                        <mxPoint x="280" y="1000" as="targetPoint"/>
                    </mxGeometry>
                </mxCell>
                <mxCell id="144" value="" style="endArrow=diamondThin;endFill=1;endSize=24;html=1;exitX=0.5;exitY=0;exitDx=0;exitDy=0;entryX=0.75;entryY=1;entryDx=0;entryDy=0;" parent="1" source="126" target="130" edge="1">
                    <mxGeometry width="160" relative="1" as="geometry">
                        <mxPoint x="270" y="1020" as="sourcePoint"/>
                        <mxPoint x="430" y="1020" as="targetPoint"/>
                    </mxGeometry>
                </mxCell>
                <mxCell id="145" value="" style="endArrow=diamondThin;endFill=1;endSize=24;html=1;exitX=1;exitY=0.5;exitDx=0;exitDy=0;" parent="1" source="123" target="127" edge="1">
                    <mxGeometry width="160" relative="1" as="geometry">
                        <mxPoint x="400" y="1040" as="sourcePoint"/>
                        <mxPoint x="490" y="1040" as="targetPoint"/>
                    </mxGeometry>
                </mxCell>
                <mxCell id="150" value="" style="endArrow=diamondThin;endFill=1;endSize=24;html=1;exitX=1;exitY=0.5;exitDx=0;exitDy=0;entryX=-0.022;entryY=0.207;entryDx=0;entryDy=0;entryPerimeter=0;" edge="1" parent="1" source="118" target="123">
                    <mxGeometry width="160" relative="1" as="geometry">
                        <mxPoint x="330" y="830" as="sourcePoint"/>
                        <mxPoint x="490" y="830" as="targetPoint"/>
                    </mxGeometry>
                </mxCell>
                <mxCell id="154" value="Daten" style="swimlane;fontStyle=1;align=center;verticalAlign=top;childLayout=stackLayout;horizontal=1;startSize=26;horizontalStack=0;resizeParent=1;resizeParentMax=0;resizeLast=0;collapsible=1;marginBottom=0;" vertex="1" parent="1">
                    <mxGeometry x="359" y="620" width="110" height="78" as="geometry"/>
                </mxCell>
                <mxCell id="155" value="Daten einlesen()" style="text;strokeColor=none;fillColor=none;align=left;verticalAlign=top;spacingLeft=4;spacingRight=4;overflow=hidden;rotatable=0;points=[[0,0.5],[1,0.5]];portConstraint=eastwest;" vertex="1" parent="154">
                    <mxGeometry y="26" width="110" height="44" as="geometry"/>
                </mxCell>
                <mxCell id="156" value="" style="line;strokeWidth=1;fillColor=none;align=left;verticalAlign=middle;spacingTop=-1;spacingLeft=3;spacingRight=3;rotatable=0;labelPosition=right;points=[];portConstraint=eastwest;" vertex="1" parent="154">
                    <mxGeometry y="70" width="110" height="8" as="geometry"/>
                </mxCell>
                <mxCell id="157" value="" style="endArrow=diamondThin;endFill=1;endSize=24;html=1;" edge="1" parent="1" source="154">
                    <mxGeometry width="160" relative="1" as="geometry">
                        <mxPoint x="470" y="610" as="sourcePoint"/>
                        <mxPoint x="410" y="560" as="targetPoint"/>
                    </mxGeometry>
                </mxCell>
                <mxCell id="158" value="" style="endArrow=diamondThin;endFill=1;endSize=24;html=1;exitX=1;exitY=0.5;exitDx=0;exitDy=0;entryX=0;entryY=0.5;entryDx=0;entryDy=0;" edge="1" parent="1" source="115" target="119">
                    <mxGeometry width="160" relative="1" as="geometry">
                        <mxPoint x="470" y="920" as="sourcePoint"/>
                        <mxPoint x="630" y="920" as="targetPoint"/>
                    </mxGeometry>
                </mxCell>
                <mxCell id="160" value="" style="endArrow=diamondThin;endFill=1;endSize=24;html=1;exitX=0.5;exitY=1;exitDx=0;exitDy=0;entryX=0.5;entryY=0;entryDx=0;entryDy=0;" edge="1" parent="1" source="105" target="114">
                    <mxGeometry width="160" relative="1" as="geometry">
                        <mxPoint x="470" y="920" as="sourcePoint"/>
                        <mxPoint x="630" y="920" as="targetPoint"/>
                    </mxGeometry>
                </mxCell>
                <mxCell id="162" value="" style="endArrow=classic;html=1;exitX=0.516;exitY=1.084;exitDx=0;exitDy=0;exitPerimeter=0;entryX=0.425;entryY=0.022;entryDx=0;entryDy=0;entryPerimeter=0;" edge="1" parent="1" source="35" target="110">
                    <mxGeometry width="50" height="50" relative="1" as="geometry">
                        <mxPoint x="600" y="340" as="sourcePoint"/>
                        <mxPoint x="630" y="550" as="targetPoint"/>
                    </mxGeometry>
                </mxCell>
            </root>
        </mxGraphModel>
    </diagram>
</mxfile>